<?xml version="1.0" encoding="UTF-8"?>
<svg width="315px" height="235px" viewBox="0 0 315 235" version="1.1" xmlns="http://www.w3.org/2000/svg" xmlns:xlink="http://www.w3.org/1999/xlink">
    <!-- Generator: Sketch 63.1 (92452) - https://sketch.com -->
    <title>Group</title>
    <desc>Created with Sketch.</desc>
    <defs>
        <linearGradient x1="55.07%" y1="6.3082%" x2="47.82%" y2="60.007%" id="linearGradient-1">
            <stop stop-color="#A27875" offset="0%"></stop>
            <stop stop-color="#BA8F8C" offset="100%"></stop>
        </linearGradient>
        <linearGradient x1="61.015%" y1="4.9819%" x2="35.422%" y2="90.381%" id="linearGradient-2">
            <stop stop-color="#9F7D7B" offset="0%"></stop>
            <stop stop-color="#CF9C99" offset="100%"></stop>
        </linearGradient>
        <linearGradient x1="57.399%" y1="23.036%" x2="35.438%" y2="105.74%" id="linearGradient-3">
            <stop stop-color="#BE9491" stop-opacity="0" offset="0%"></stop>
            <stop stop-color="#CEAEAC" offset="100%"></stop>
        </linearGradient>
        <radialGradient cx="113.31%" cy="-2.1797%" fx="113.31%" fy="-2.1797%" r="107.982062%" gradientTransform="translate(1.133100,-0.021797),scale(0.764706,1.000000),rotate(140.054324),translate(-1.133100,0.021797)" id="radialGradient-4">
            <stop stop-color="#FDCCCC" offset="0.19003%"></stop>
            <stop stop-color="#E39A9A" offset="100%"></stop>
        </radialGradient>
        <radialGradient cx="113.31%" cy="-2.1797%" fx="113.31%" fy="-2.1797%" r="107.859158%" gradientTransform="translate(1.133100,-0.021797),scale(0.766190,1.000000),rotate(139.999625),translate(-1.133100,0.021797)" id="radialGradient-5">
            <stop stop-color="#FDCCCC" offset="0.19003%"></stop>
            <stop stop-color="#E39A9A" offset="100%"></stop>
        </radialGradient>
        <path d="M73.093,4.3985 C78.3238,5.4932 82.3157,5.4932 85.069,4.3985 C89.1986,2.7564 94.9799,-0.1173 97.458,0.7038 C99.9357,1.52485 102.8264,3.988 101.5876,7.6827 C100.76169,10.1459 93.6038,28.3457 80.1136,62.2827 C77.3606,71.3143 71.4415,76.3777 62.3566,77.4717 C48.7286,79.1138 22.2996,74.1875 0.4136,59.8187 C0.00064,59.40817 2.8913,54.0713 6.6079,54.0713 C6.6079,54.0713 10.7375,44.6292 13.2152,41.7553 C15.6929,38.8814 21.4743,40.1132 23.1261,40.93425 C24.2273,41.48162 29.0451,43.53425 37.5791,47.09215 C39.2309,47.63952 40.6074,46.54478 41.7087,43.80795 C42.81,41.07112 46.6642,27.93395 53.2717,4.39695 C55.1988,0.29165 58.2272,-0.93985 62.3567,0.70225 C66.4863,2.34435 70.0652,3.57595 73.0937,4.39695 L73.093,4.3985 Z" id="path-6"></path>
        <path d="M73.093,4.3985 C78.3238,5.4932 82.3157,5.4932 85.069,4.3985 C89.1986,2.7564 94.9799,-0.1173 97.458,0.7038 C99.9357,1.52485 102.8264,3.988 101.5876,7.6827 C100.76169,10.1459 93.6038,28.3457 80.1136,62.2827 C77.3606,71.3143 71.4415,76.3777 62.3566,77.4717 C48.7286,79.1138 22.2996,74.1875 0.4136,59.8187 C0.00064,59.40817 2.8913,54.0713 6.6079,54.0713 C6.6079,54.0713 10.7375,44.6292 13.2152,41.7553 C15.6929,38.8814 21.4743,40.1132 23.1261,40.93425 C24.2273,41.48162 29.0451,43.53425 37.5791,47.09215 C39.2309,47.63952 40.6074,46.54478 41.7087,43.80795 C42.81,41.07112 46.6642,27.93395 53.2717,4.39695 C55.1988,0.29165 58.2272,-0.93985 62.3567,0.70225 C66.4863,2.34435 70.0652,3.57595 73.0937,4.39695 L73.093,4.3985 Z" id="path-8"></path>
        <radialGradient cx="50%" cy="-50%" fx="50%" fy="-50%" r="98.862%" gradientTransform="translate(0.500000,-0.500000),scale(0.755533,1.000000),rotate(90.000000),translate(-0.500000,0.500000)" id="radialGradient-10">
            <stop stop-color="#93A6CD" offset="0%"></stop>
            <stop stop-color="#43516F" offset="100%"></stop>
        </radialGradient>
        <path d="M73.093,4.3985 C78.3238,5.4932 82.3157,5.4932 85.069,4.3985 C89.1986,2.7564 94.9799,-0.1173 97.458,0.7038 C99.9357,1.52485 102.8264,3.988 101.5876,7.6827 C100.76169,10.1459 93.6038,28.3457 80.1136,62.2827 C77.3606,71.3143 71.4415,76.3777 62.3566,77.4717 C48.7286,79.1138 22.2996,74.1875 0.4136,59.8187 C0.00064,59.40817 2.8913,54.0713 6.6079,54.0713 C6.6079,54.0713 10.7375,44.6292 13.2152,41.7553 C15.6929,38.8814 21.4743,40.1132 23.1261,40.93425 C24.2273,41.48162 29.0451,43.53425 37.5791,47.09215 C39.2309,47.63952 40.6074,46.54478 41.7087,43.80795 C42.81,41.07112 46.6642,27.93395 53.2717,4.39695 C55.1988,0.29165 58.2272,-0.93985 62.3567,0.70225 C66.4863,2.34435 70.0652,3.57595 73.0937,4.39695 L73.093,4.3985 Z" id="path-11"></path>
        <linearGradient x1="29.85%" y1="36.73%" x2="84.527%" y2="56.706%" id="linearGradient-13">
            <stop stop-color="#F9A8A8" offset="0%"></stop>
            <stop stop-color="#D69393" offset="100%"></stop>
        </linearGradient>
        <path d="M73.093,4.3985 C78.3238,5.4932 82.3157,5.4932 85.069,4.3985 C89.1986,2.7564 94.9799,-0.1173 97.458,0.7038 C99.9357,1.52485 102.8264,3.988 101.5876,7.6827 C100.76169,10.1459 93.6038,28.3457 80.1136,62.2827 C77.3606,71.3143 71.4415,76.3777 62.3566,77.4717 C48.7286,79.1138 22.2996,74.1875 0.4136,59.8187 C0.00064,59.40817 2.8913,54.0713 6.6079,54.0713 C6.6079,54.0713 10.7375,44.6292 13.2152,41.7553 C15.6929,38.8814 21.4743,40.1132 23.1261,40.93425 C24.2273,41.48162 29.0451,43.53425 37.5791,47.09215 C39.2309,47.63952 40.6074,46.54478 41.7087,43.80795 C42.81,41.07112 46.6642,27.93395 53.2717,4.39695 C55.1988,0.29165 58.2272,-0.93985 62.3567,0.70225 C66.4863,2.34435 70.0652,3.57595 73.0937,4.39695 L73.093,4.3985 Z" id="path-14"></path>
        <path d="M73.093,4.3985 C78.3238,5.4932 82.3157,5.4932 85.069,4.3985 C89.1986,2.7564 94.9799,-0.1173 97.458,0.7038 C99.9357,1.52485 102.8264,3.988 101.5876,7.6827 C100.76169,10.1459 93.6038,28.3457 80.1136,62.2827 C77.3606,71.3143 71.4415,76.3777 62.3566,77.4717 C48.7286,79.1138 22.2996,74.1875 0.4136,59.8187 C0.00064,59.40817 2.8913,54.0713 6.6079,54.0713 C6.6079,54.0713 10.7375,44.6292 13.2152,41.7553 C15.6929,38.8814 21.4743,40.1132 23.1261,40.93425 C24.2273,41.48162 29.0451,43.53425 37.5791,47.09215 C39.2309,47.63952 40.6074,46.54478 41.7087,43.80795 C42.81,41.07112 46.6642,27.93395 53.2717,4.39695 C55.1988,0.29165 58.2272,-0.93985 62.3567,0.70225 C66.4863,2.34435 70.0652,3.57595 73.0937,4.39695 L73.093,4.3985 Z" id="path-16"></path>
        <path d="M56.575,1.8767 C57.40091,0.2346 53.9596,-0.3128 46.251,0.2346 C34.688,1.05565 34.275,4.7504 27.255,3.9293 C20.235,3.1082 9.911,0.2346 6.194,0.6451 C3.7163,0.91878 1.6515,2.8346 -0.0003,6.3925 C3.3033,7.7609 6.607,8.9925 9.9106,10.0872 C14.8661,11.7293 22.7126,13.3714 31.7976,12.1398 C37.8543,11.31875 46.1136,7.8977 56.5746,1.8768 L56.575,1.8767 Z" id="path-18"></path>
        <linearGradient x1="83.434%" y1="41.704%" x2="50%" y2="54.881%" id="linearGradient-20">
            <stop stop-color="#D58888" offset="0%"></stop>
            <stop stop-color="#FDC5C5" offset="100%"></stop>
        </linearGradient>
        <linearGradient x1="50%" y1="0%" x2="51.002%" y2="53.689%" id="linearGradient-21">
            <stop stop-color="#B48784" offset="0%"></stop>
            <stop stop-color="#D7ABA8" offset="100%"></stop>
        </linearGradient>
        <linearGradient x1="43.137%" y1="4.1397%" x2="53.274%" y2="66.939%" id="linearGradient-22">
            <stop stop-color="#AE827F" offset="0%"></stop>
            <stop stop-color="#C39996" offset="100%"></stop>
        </linearGradient>
        <linearGradient x1="49.502%" y1="5.2843%" x2="51.405%" y2="107.89%" id="linearGradient-23">
            <stop stop-color="#F1DEDC" stop-opacity="0" offset="0%"></stop>
            <stop stop-color="#DFB9B7" offset="100%"></stop>
        </linearGradient>
        <path d="M28.831,2.5803 C25.326,-0.8582 19.7135,-0.8582 16.209,2.5803 L15.72294,3.06136 L15.23788,2.5833 C11.73238,-0.8548 6.11988,-0.8548 2.61488,2.5833 C0.94268,4.2234 0.00048,6.4672 0.00048,8.8095 C0.00048,11.1518 0.94269,13.3956 2.61488,15.0357 L14.75188,27.0027 C15.29074,27.53195 16.15428,27.53195 16.69308,27.0027 L28.83108,15.0317 C30.50408,13.392 31.44678,11.148 31.44678,8.8055 C31.44678,6.4629 30.50405,4.219 28.83108,2.5793 L28.83108,2.5803001 L28.831,2.5803 Z" id="path-24"></path>
        <linearGradient x1="50%" y1="0%" x2="50%" y2="100%" id="linearGradient-26">
            <stop stop-color="#FEC4C4" offset="0%"></stop>
            <stop stop-color="#CE8282" offset="100%"></stop>
        </linearGradient>
        <linearGradient x1="50%" y1="0%" x2="50%" y2="100%" id="linearGradient-27">
            <stop stop-color="#FAEBE7" offset="0%"></stop>
            <stop stop-color="#F6DDD6" offset="100%"></stop>
        </linearGradient>
        <linearGradient x1="50%" y1="0.6%" x2="50%" y2="100%" id="linearGradient-28">
            <stop stop-color="#FCF1ED" offset="0%"></stop>
            <stop stop-color="#EFD5CD" stop-opacity="0" offset="100%"></stop>
        </linearGradient>
        <linearGradient x1="50%" y1="0%" x2="50%" y2="100%" id="linearGradient-29">
            <stop stop-color="#EC8E8D" offset="0%"></stop>
            <stop stop-color="#DB7B7B" offset="100%"></stop>
        </linearGradient>
        <linearGradient x1="102%" y1="11.6%" x2="42.8%" y2="60.8%" id="linearGradient-30">
            <stop stop-color="#EC8E8D" offset="0%"></stop>
            <stop stop-color="#DB7B7B" offset="100%"></stop>
        </linearGradient>
        <linearGradient x1="50%" y1="-20.8%" x2="50%" y2="70.3%" id="linearGradient-31">
            <stop stop-color="#EE9291" offset="0%"></stop>
            <stop stop-color="#F58686" stop-opacity="0" offset="100%"></stop>
        </linearGradient>
        <radialGradient cx="60.0405%" cy="50%" fx="60.0405%" fy="50%" r="84.1%" gradientTransform="translate(0.600405,0.500000),scale(0.162810,1.000000),rotate(90.000000),translate(-0.600405,-0.500000)" id="radialGradient-32">
            <stop stop-color="#916D5A" offset="0%"></stop>
            <stop stop-color="#392C27" offset="100%"></stop>
        </radialGradient>
        <linearGradient x1="74.1%" y1="50%" x2="19.7%" y2="50%" id="linearGradient-33">
            <stop stop-color="#FBE1D4" offset="0%"></stop>
            <stop stop-color="#F1B49B" offset="100%"></stop>
        </linearGradient>
        <linearGradient x1="50%" y1="0%" x2="50%" y2="100%" id="linearGradient-34">
            <stop stop-color="#FBE9E0" offset="0%"></stop>
            <stop stop-color="#EEBBA6" offset="100%"></stop>
        </linearGradient>
        <linearGradient x1="50%" y1="0%" x2="50%" y2="100%" id="linearGradient-35">
            <stop stop-color="#FBE9E0" offset="0%"></stop>
            <stop stop-color="#EEBBA6" offset="100%"></stop>
        </linearGradient>
    </defs>
    <g id="Page-1" stroke="none" stroke-width="1" fill="none" fill-rule="evenodd">
        <g id="marketplace-heroimage">
            <g id="Clipped">
                <g id="Group" transform="translate(-52.000000, -16.000000)">
                    <g opacity="0.5" transform="translate(254.760000, 146.000000)" fill="#EBE8F2" fill-rule="nonzero" id="Oval">
                        <ellipse cx="52.24" cy="8" rx="52" ry="8"></ellipse>
                    </g>
                    <g id="aw" opacity="0.27904" transform="translate(265.000000, 54.000000)">
                        <g id="bd" transform="translate(8.000000, 69.000000)" fill-rule="nonzero">
                            <path d="M29.904,6.3273 L25.398,23.9533 C25.67109,24.83209 26.4904,25.0581 27.8558,24.63122 C27.8558,24.63122 29.904,18.52992 34.0004,6.32722 L30.7233,4.97142 L29.90402,6.32722 L29.904,6.3273 Z" id="bh" fill="url(#linearGradient-1)"></path>
                            <path d="M10.651,0 C3.5506,18.756 0,28.268 0,28.536 C0,28.93791 1.2289,29.33983 1.6386,28.536 C1.91169,28.00011 7.1004,19.292 17.2046,2.412 L10.6504,0.0005 L10.651,0 Z" id="az" fill="url(#linearGradient-2)"></path>
                            <polygon id="bg" fill="url(#linearGradient-3)" points="10.241 3.3143 13.108 4.9714 0.81928 27.757"></polygon>
                        </g>
                        <g id="bj">
                            <g id="bk" fill="url(#radialGradient-5)" fill-rule="nonzero">
                                <path d="M73.093,4.3985 C78.3238,5.4932 82.3157,5.4932 85.069,4.3985 C89.1986,2.7564 94.9799,-0.1173 97.458,0.7038 C99.9357,1.52485 102.8264,3.988 101.5876,7.6827 C100.76169,10.1459 93.6038,28.3457 80.1136,62.2827 C77.3606,71.3143 71.4415,76.3777 62.3566,77.4717 C48.7286,79.1138 22.2996,74.1875 0.4136,59.8187 C0.00064,59.40817 2.8913,54.0713 6.6079,54.0713 C6.6079,54.0713 10.7375,44.6292 13.2152,41.7553 C15.6929,38.8814 21.4743,40.1132 23.1261,40.93425 C24.2273,41.48162 29.0451,43.53425 37.5791,47.09215 C39.2309,47.63952 40.6074,46.54478 41.7087,43.80795 C42.81,41.07112 46.6642,27.93395 53.2717,4.39695 C55.1988,0.29165 58.2272,-0.93985 62.3567,0.70225 C66.4863,2.34435 70.0652,3.57595 73.0937,4.39695 L73.093,4.3985 Z" id="d"></path>
                            </g>
                            <g id="av-Clipped">
                                <mask id="mask-7" fill="white">
                                    <use xlink:href="#path-6"></use>
                                </mask>
                                <g id="d"></g>
                                <path d="M52.032,53.251 L59.8782,40.114 C62.9065,39.0193 65.5219,39.29295 67.7244,40.93505 C69.9268,42.57715 69.9268,43.12455 67.7244,42.57715 L64.0078,49.14555 L59.8782,57.76665 L55.7486,55.71405 L52.032,53.25085 L52.032,53.251 Z" id="av" fill="#D58888" fill-rule="nonzero" mask="url(#mask-7)"></path>
                            </g>
                            <g id="ba-Clipped">
                                <mask id="mask-9" fill="white">
                                    <use xlink:href="#path-8"></use>
                                </mask>
                                <g id="d"></g>
                                <path d="M102,3.5772 L83.004,42.1664 C81.3522,46.5453 78.5991,47.6401 74.7449,45.4506 C70.8907,43.2611 68.5506,41.7559 67.7247,40.9348 C66.3482,40.11375 64.834,40.9348 63.1822,43.398 C61.5304,45.8612 59.0526,49.6927 55.749,54.893 L34.275,64.3351 L12.388,62.693 L0.412,59.8193 L7.8452,67.6193 L24.3632,74.5982 L39.2292,79.114 L59.0512,81.5772 L78.4602,76.2404 L85.8934,58.5874 L103.6504,6.8614 L101.9986,3.5772 L102,3.5772 Z" id="ba" fill="url(#radialGradient-10)" fill-rule="nonzero" mask="url(#mask-9)"></path>
                            </g>
                            <g id="ay-Clipped">
                                <mask id="mask-12" fill="white">
                                    <use xlink:href="#path-11"></use>
                                </mask>
                                <g id="d"></g>
                                <path d="M38.818,47.093 L42.1216,47.093 C43.2228,49.2825 43.2228,51.8825 42.1216,54.893 C41.0204,57.9035 36.2026,59.4088 27.6686,59.4088 L11.9766,56.9456 L6.1952,54.893 L4.1304,53.2509 L11.9766,40.1139 L21.0616,37.6507 L33.4506,43.3981 L37.1672,45.4507 L38.819,47.0928 L38.818,47.093 Z" id="ay" fill="url(#linearGradient-13)" fill-rule="nonzero" mask="url(#mask-12)"></path>
                            </g>
                            <g id="be-Clipped">
                                <mask id="mask-15" fill="white">
                                    <use xlink:href="#path-14"></use>
                                </mask>
                                <g id="d"></g>
                                <path d="M6.6073,54.072 L8.6721,54.89305 C10.0486,49.96675 11.8381,46.13515 14.0405,43.39805 C16.2429,40.66125 18.996,39.70335 22.2996,40.52435 L21.0607,38.88225 L14.0405,39.29278 L11.1498,42.57698 L6.6073,50.78748 L5.78139,53.25068 L6.6073,54.07173 L6.6073,54.072 Z" id="be" fill="#D58888" fill-rule="nonzero" mask="url(#mask-15)"></path>
                            </g>
                            <g id="bb-Clipped">
                                <mask id="mask-17" fill="white">
                                    <use xlink:href="#path-16"></use>
                                </mask>
                                <g id="d"></g>
                                <g id="bb" mask="url(#mask-17)">
                                    <g transform="translate(-1.000000, 53.000000)" id="Group">
                                        <g transform="translate(0.174090, 0.017000)">
                                            <g id="bc" fill="#FDC5C5" fill-rule="nonzero">
                                                <path d="M56.575,1.8767 C57.40091,0.2346 53.9596,-0.3128 46.251,0.2346 C34.688,1.05565 34.275,4.7504 27.255,3.9293 C20.235,3.1082 9.911,0.2346 6.194,0.6451 C3.7163,0.91878 1.6515,2.8346 -0.0003,6.3925 C3.3033,7.7609 6.607,8.9925 9.9106,10.0872 C14.8661,11.7293 22.7126,13.3714 31.7976,12.1398 C37.8543,11.31875 46.1136,7.8977 56.5746,1.8768 L56.575,1.8767 Z" id="g"></path>
                                            </g>
                                            <g id="bf-Clipped">
                                                <mask id="mask-19" fill="white">
                                                    <use xlink:href="#path-18"></use>
                                                </mask>
                                                <g id="g"></g>
                                                <path d="M52.858,-0.58647 C43.4977,2.15033 37.028,7.21353 33.449,14.60253 C29.8701,21.99203 19.959,20.89723 3.716,11.31833 C11.1492,5.84463 17.206,2.69723 21.886,1.87623 C26.5662,1.05518 36.89,0.23413 52.858,-0.58697 L52.858,-0.58647 Z" id="bf" fill="url(#linearGradient-20)" fill-rule="nonzero" opacity="0.37444" mask="url(#mask-19)"></path>
                                            </g>
                                        </g>
                                    </g>
                                </g>
                            </g>
                        </g>
                        <g id="bi" transform="translate(43.000000, 71.000000)" fill-rule="nonzero">
                            <path d="M0.41053,0.86616 C0.13685,1.41901 2.05263,12.19916 6.15793,33.20716 C7.25263,33.76001 8.07373,33.76001 8.62113,33.20716 C8.62113,31.54866 7.78118,9.13516 7.38953,5.42716 C6.979,2.93936 6.5372,2.89456 5.33693,2.11006 C4.13663,1.32562 0.82113,0.03686 0.41063,0.86616 L0.41053,0.86616 Z" id="bl" fill="url(#linearGradient-21)"></path>
                            <path d="M36.537,25.744 C37.6317,25.93534 38.4528,25.815074 39.0002,25.38321 C39.0002,25.38321 36.4002,17.39381 31.2002,1.41521 C30.92652,0.491 30.24231,0.16981 29.1476,0.4516 C28.0529,0.7334 27.5055,1.37851 27.5055,2.3869 L36.5371,25.7439 L36.537,25.744 Z" id="au" fill="url(#linearGradient-22)"></path>
                            <path d="M4.1053,9.1588 C6.0211,20.7688 7.2527,28.3698 7.8,31.9638 C8.3473,35.5578 8.07365296,27.9557 6.97895,9.1588 L4.10525,9.1588 L4.1053,9.1588 Z" id="ax" fill="url(#linearGradient-23)"></path>
                        </g>
                    </g>
                    <g transform="translate(188.731000, 75.148000)">
                        <g transform="translate(25.546550, 19.619586) rotate(-15.009000) translate(-25.546550, -19.619586) translate(9.546550, 5.619586)" id="Clipped">
                            <g>
                                <mask id="mask-25" fill="white">
                                    <use xlink:href="#path-24"></use>
                                </mask>
                                <g id="u"></g>
                                <g id="Group" mask="url(#mask-25)">
                                    <g transform="translate(0.000000, -2.000200)">
                                        <g transform="translate(0.000000, 0.031004)">
                                            <g fill="#F6E4E4" fill-rule="nonzero" id="Rectangle">
                                                <rect x="0" y="0" width="31.447" height="31.513"></rect>
                                            </g>
                                        </g>
                                    </g>
                                </g>
                            </g>
                        </g>
                        <g stroke-linecap="round" stroke-linejoin="round" transform="translate(18.735550, 17.996586) rotate(-15.009000) translate(-18.735550, -17.996586) translate(3.235550, 4.496586)" id="Path" stroke="#F58A8A" stroke-width="1.5002">
                            <path d="M28.188,2.3553 C26.6807,0.8474 24.6359,0.0001 22.5038,0.0001 C20.3717,0.0001 18.3269,0.84731 16.8196,2.3553 L15.2704,3.9005 L13.7222,2.3553 C11.6916,0.3245 8.7319,-0.4687 5.9579,0.2745 C3.1839,1.01765 1.0171,3.1843 0.2737,5.9582 C-0.4697,8.7321 0.323238,11.6919 2.3538,13.7227 L3.9,15.2719 L15.27,26.6399 L28.188,13.7219 C29.6962,12.2147 30.5436,10.1699 30.5436,8.0377 C30.5436,5.9055 29.69622,3.8607 28.188,2.3535 L28.188,2.3545001 L28.188,2.3553 Z"></path>
                        </g>
                    </g>
                    <g opacity="0.75" transform="translate(0.764000, 0.778000)" fill-rule="nonzero">
                        <g transform="translate(0.783000, 0.000000)">
                            <g transform="translate(0.000000, 163.240000)">
                                <polygon id="Path" fill="#DCB8B6" points="109.48 54.425 96.598 105.94 91.446 105.94 94.022 53.137"></polygon>
                                <polygon id="Path" fill="#DCB8B6" points="202.21 44.121 215.09 95.64 220.24 95.64 217.67 42.833"></polygon>
                                <ellipse id="Oval" fill="#DDC4C3" cx="116.61" cy="32.528" rx="116.47" ry="24.134"></ellipse>
                                <polygon id="Path" fill="#DDC4C3" points="233.13 22.225 233.13 34.3 211.23 41.545 215.09 24.645"></polygon>
                                <ellipse id="Oval" fill="#E9D2D1" cx="116.61" cy="22.56" rx="116.47" ry="22.56"></ellipse>
                            </g>
                            <g transform="translate(81.143000, 0.000000)">
                                <path d="M20.608,48.94296 L24.559,54.025 C24.69825,54.47112 24.9941,54.85186 25.392,55.097 L29.624,60.535 L34.776,73.415 L15.456,64.4 L10.028,54.448 C10.38118,53.85963 10.39594,53.1281 10.066794,52.526 C9.737644,51.92386 9.113924,51.54137 8.427994,51.521 L7.727994,50.232 L8.159994,51.532 C7.377514,51.621309 6.727594,52.17664 6.517194,52.9356 C6.306794,53.69456 6.578304,54.5052 7.203224,54.9845 C7.828144,55.46381 8.681424,55.51582 9.359924,55.11596 L12.879924,65.68696 L36.062924,77.27896 L42.502924,83.71896 L42.502924,124.93396 L45.078924,124.93396 L45.078924,83.71896 L37.350924,73.41896 L32.199924,60.53496 L26.962924,55.29996 C27.845304,55.03277 28.415924,54.17936 28.325724,53.26186 C28.235509,52.34434 27.509574,51.61836 26.592024,51.52816 C25.674504,51.437945 24.821124,52.00859 24.553924,52.89096 L20.607924,48.94296 L20.608,48.94296 Z M50.231,6.43996 L52.087,10.307 L51.977,10.313 C51.11176,10.395123 50.4079,11.0449 50.2569,11.9008 C50.10595,12.75672 50.54512,13.6081 51.3301,13.9812 C52.11508,14.3543 53.0525,14.15741 53.621,13.49996 L65.687,38.63896 L64.4,56.67096 L63.111,64.39996 L57.959,74.69996 L51.519,50.22796 L42.5,32.19996 L50.228,50.23196 L56.668,77.27996 L45.079,124.93396 L47.655,124.93396 L59.247,77.27896 L65.687,64.39896 L66.975,57.95896 L83.719,45.07896 L84.719,37.10896 C85.46587,37.52315 86.3961,37.39783 87.0067,36.80075 C87.61733,36.20367 87.76349,35.27655 87.36616,34.52055 C86.96883,33.76457 86.12226,33.35915 85.28426,33.5235 C84.44619,33.68784 83.81546,34.38293 83.73306,35.233 L83.72406,35.419 C83.7235543,35.98644 83.97304,36.5253 84.40606,36.892 L82.43606,43.792 L66.97506,55.383 L68.26306,42.5 L83.71906,19.32 L86.29506,11.592 L82.43106,18.032 L68.26306,37.351 L53.98606,12.877 C54.17336,12.34196 54.11649,11.7517 53.83049,11.2622 C53.54449,10.77276 53.05815,10.43344 52.50009,10.33396 L50.23109,6.43996 L50.231,6.43996 Z M21.252,52.807 C20.185,52.807 19.32,53.67199 19.32,54.739 C19.32,55.80601 20.18499,56.671 21.252,56.671 C22.31901,56.671 23.184,55.80601 23.184,54.739 C23.184,53.67199 22.31901,52.807 21.252,52.807 Z M1.932,48.943 C0.865,48.943 2.22044605e-15,49.80799 2.22044605e-15,50.875 C2.22044605e-15,51.94201 0.86499,52.807 1.932,52.807 C2.999,52.807 3.864,51.94201 3.864,50.875 C3.864,49.80799 2.99901,48.943 1.932,48.943 Z M17.388,48.943 C16.321,48.943 15.456,49.80799 15.456,50.875 C15.456,51.94201 16.32099,52.807 17.388,52.807 C18.45501,52.807 19.32,51.94201 19.32,50.875 C19.32,49.80799 18.45501,48.943 17.388,48.943 Z M25.116,46.36698 C24.0491,46.36698 23.1842,47.23178 23.184,48.2987 C23.183816,49.3656 24.04845,50.2307 25.1153,50.2310001 C26.1822,50.231368 27.0474,49.36688 27.0480003,48.3 C27.048265,47.78743 26.84483,47.2958 26.48248,46.9332 C26.12013,46.57066 25.62857,46.36698 25.11598,46.36698 L25.116,46.36698 Z M31.556,45.0789798 C30.489,45.0789798 29.624,45.94399 29.624,47.011 C29.624,48.07801 30.48899,48.943 31.556,48.943 C32.62301,48.943 33.488,48.07801 33.488,47.011 C33.488,46.49843 33.28431,46.0069 32.92178,45.6445 C32.55924,45.28215 32.06757,45.07872 31.55498,45.0789798 L31.55598,45.0789798 L31.556,45.0789798 Z M10.948,45.0790003 C9.881,45.0790003 9.016,45.9439903 9.016,47.0110003 C9.016,48.0780103 9.88099,48.9430003 10.948,48.9430003 C12.015,48.9430003 12.88,48.0780103 12.88,47.0110003 C12.88,45.9439903 12.01501,45.0790003 10.948,45.0790003 Z M5.796,45.0790003 C4.729,45.0790003 3.864,45.9439903 3.864,47.0110003 C3.864,48.0780103 4.72899,48.9430003 5.796,48.9430003 C6.86301,48.9430003 7.728,48.0780103 7.728,47.0110003 C7.728,45.9455003 6.86545,45.0812003 5.8,45.0790003 L5.796,45.0790003 Z M21.252,43.7910003 C20.185,43.7910003 19.32,44.6559903 19.32,45.7230003 C19.32,46.7900103 20.18499,47.6550003 21.252,47.6550003 C22.31901,47.6550003 23.184,46.7900103 23.184,45.7230003 C23.184,45.2106003 22.98045,44.7192003 22.61813,44.3569003 C22.25581,43.9946003 21.7644,43.7910003 21.25203,43.7910003 L21.252,43.7910003 Z M16.1,42.5000003 C15.033,42.5000003 14.168,43.3649903 14.168,44.4320003 C14.168,45.4990103 15.03299,46.3640003 16.1,46.3640003 C17.16701,46.3640003 18.032,45.4990103 18.032,44.4320003 C18.032,43.3649903 17.16701,42.5000003 16.1,42.5000003 Z M43.148,41.2120003 C42.081,41.2120003 41.216,42.0769903 41.216,43.1440003 C41.216,44.2110103 42.08099,45.0760003 43.148,45.0760003 C44.21501,45.0760003 45.08,44.2110103 45.08,43.1440003 C45.0783445,42.0778003 44.21323,41.2144003 43.147,41.2150003 L43.148,41.2120003 Z M7.084,39.9270003 C6.017,39.9270003 5.152,40.7919903 5.152,41.8590003 C5.152,42.9260103 6.01699,43.7910003 7.084,43.7910003 C8.15101,43.7910003 9.016,42.9260103 9.016,41.8590003 C9.016,41.3466003 8.81245,40.8552003 8.45013,40.4929003 C8.08781,40.1306003 7.5964,39.9270003 7.08403,39.9270003 L7.084,39.9270003 Z M88.227,38.6390003 C87.16,38.6390003 86.295,39.5039903 86.295,40.5710003 C86.295,41.6380103 87.15999,42.5030003 88.227,42.5030003 C89.29401,42.5030003 90.159,41.6380103 90.159,40.5710003 C90.159,40.0586003 89.95545,39.5672003 89.59313,39.2049003 C89.23081,38.8426003 88.7394,38.6390003 88.22703,38.6390003 L88.227,38.6390003 Z M23.827,38.6390003 C22.76,38.6390003 21.895,39.5039903 21.895,40.5710003 C21.895,41.6380103 22.75999,42.5030003 23.827,42.5030003 C24.89401,42.5030003 25.759,41.6380103 25.759,40.5710003 C25.759,39.5044003 24.89462,38.6396003 23.828,38.6390003 L23.827,38.6390003 L23.827,38.6390003 Z M40.571,34.774998 C39.78931,34.7737888 39.0839,35.2437303 38.7839,35.9656003 C38.48392,36.6874403 38.64847,37.5189003 39.20078,38.0721003 C39.75309,38.6252703 40.58428,38.7911103 41.30658,38.4922503 C42.02889,38.1933903 42.49998,37.4887503 42.49998,36.7070503 C42.49998,35.6412503 41.63682,34.7767503 40.57098,34.7750503 L40.571,34.774998 Z M81.786,33.4870003 C80.719,33.4870003 79.854,34.3519903 79.854,35.4190003 C79.854,36.4860103 80.71899,37.3510003 81.786,37.3510003 C82.85301,37.3510003 83.718,36.4860103 83.718,35.4190003 C83.718,34.3524003 82.85362,33.4876003 81.787,33.4870003 L81.786,33.4870003 Z M47.011,33.4870003 C45.944,33.4870003 45.079,34.3519903 45.079,35.4190003 C45.079,36.4860103 45.94399,37.3510003 47.011,37.3510003 C48.07801,37.3510003 48.943,36.4860103 48.943,35.4190003 C48.943,34.9066003 48.73945,34.4152003 48.37713,34.0529003 C48.01481,33.6906003 47.5234,33.4870003 47.01103,33.4870003 L47.011,33.4870003 Z M84.362,29.6230003 C83.295,29.6230003 82.43,30.4879903 82.43,31.5550003 C82.43,32.6220103 83.29499,33.4870003 84.362,33.4870003 C85.42901,33.4870003 86.294,32.6220103 86.294,31.5550003 C86.2934483,30.4888003 85.42923,29.6246003 84.363,29.6240003 L84.362,29.6230003 Z M44.435,28.3360003 C43.368,28.3360003 42.503,29.2009903 42.503,30.2680003 C42.503,31.3350103 43.36799,32.2000003 44.435,32.2000003 C45.50201,32.2000003 46.367,31.3350103 46.367,30.2680003 C46.367,29.2009903 45.50201,28.3360003 44.435,28.3360003 L44.435,28.3360003 Z M39.283,28.3360003 C38.216,28.3360003 37.351,29.2009903 37.351,30.2680003 C37.351,31.3350103 38.21599,32.2000003 39.283,32.2000003 C40.35001,32.2000003 41.215,31.3350103 41.215,30.2680003 C41.215,29.7556003 41.01145,29.2642003 40.64913,28.9019003 C40.28681,28.5396003 39.7954,28.3360003 39.28303,28.3360003 L39.283,28.3360003 Z M47.011,10.3000003 C45.944,10.3000003 45.079,11.1649903 45.079,12.2320003 C45.079,13.2990103 45.94399,14.1640003 47.011,14.1640003 C48.07801,14.1640003 48.943,13.2990103 48.943,12.2320003 C48.943,11.1649903 48.07801,10.3000003 47.011,10.3000003 Z M90.8,7.7280003 C89.7332,7.7291056 88.8693,8.5945803 88.8699996,9.6613003 C88.8707365,10.7281003 89.73591,11.5923003 90.8027,11.5920004 C91.8695,11.5916324 92.734,10.7267503 92.734,9.6600003 C92.734,9.1472603 92.53018,8.6555003 92.16742,8.2932003 C91.80467,7.9308203 91.31274,7.7275103 90.80002,7.7280403 L90.8,7.7280003 Z M80.5,7.72800082 C79.71849,7.72759683 79.0137,8.19806108 78.7144,8.92000108 C78.4151,9.64194108 78.58009,10.4731011 79.13256,11.0258011 C79.68503,11.5785611 80.51606,11.7440311 81.23816,11.4450511 C81.96026,11.1460711 82.43106,10.4415511 82.43106,9.66005108 C82.43106,8.59345108 81.56668,7.72865108 80.50006,7.72805108 L80.5,7.72800082 Z M84.363,6.44000108 C83.296,6.44000108 82.431,7.30499108 82.431,8.37200108 C82.431,9.43901108 83.29599,10.3040011 84.363,10.3040011 C85.43001,10.3040011 86.295,9.43901108 86.295,8.37200108 C86.295,7.30499108 85.43001,6.44000108 84.363,6.44000108 Z M56.027,6.44000108 C54.96,6.44000108 54.095,7.30499108 54.095,8.37200108 C54.095,9.43901108 54.95999,10.3040011 56.027,10.3040011 C57.09401,10.3040011 57.959,9.43901108 57.959,8.37200108 C57.959,7.30499108 57.09401,6.44000108 56.027,6.44000108 Z M94.666,3.86400108 C93.5998,3.86510818 92.736,4.72977108 92.736,5.79600108 C92.736,6.86220108 93.59977,7.72690108 94.666,7.72800213 C95.7322,7.72910338 96.5978,6.86623108 96.6000041,5.80000108 C96.6010592,5.28656108 96.3977,4.79380108 96.03484,4.43060108 C95.67197,4.06736108 95.17944,3.86349108 94.66604,3.86400108 L94.666,3.86400108 Z M89.514,3.86400212 C88.4475,3.86400212 87.5827,4.72818212 87.5819995,5.79470212 C87.581266,6.86120212 88.44484,7.72660212 89.5113,7.72800399 C90.5778,7.72947152 91.4438,6.86649212 91.4460041,5.80000212 C91.4470582,5.28691212 91.24398,4.79450212 90.88154,4.43130212 C90.5191,4.06811212 90.02709,3.86400212 89.51404,3.86400212 L89.514,3.86400212 Z M77.922,3.86400212 C76.8556,3.86455635 75.9914,4.72897212 75.9909999,5.79530212 C75.9906337,6.86170212 76.85431,7.72670212 77.9207,7.72800356 C78.9871,7.72928792 79.8528,6.86636212 79.8550041,5.80000212 C79.8560582,5.28691212 79.65298,4.79450212 79.29054,4.43130212 C78.9281,4.06811212 78.43609,3.86400212 77.92304,3.86400212 L77.92204,3.86400212 L77.922,3.86400212 Z M48.299,3.86400212 C47.2325,3.86400212 46.3677,4.72818212 46.3669995,5.79470212 C46.366266,6.86120212 47.22984,7.72660212 48.2963,7.72800399 C49.3628,7.72947152 50.2288,6.86649212 50.2310041,5.80000212 C50.2320579,5.28708212 50.02911,4.79480212 49.6669,4.43160212 C49.30469,4.06840212 48.81292,3.86423212 48.3,3.86396212 L48.299,3.86396212 L48.299,3.86400212 Z M85.651,2.57600212 C84.584,2.57600212 83.719,3.44099212 83.719,4.50800212 C83.719,5.57501212 84.58399,6.44000212 85.651,6.44000212 C86.71801,6.44000212 87.583,5.57501212 87.583,4.50800212 C87.583,3.99560212 87.37945,3.50420212 87.01713,3.14190212 C86.65481,2.77960212 86.1634,2.57600212 85.65103,2.57600212 L85.651,2.57600212 Z M53.451,2.57600212 C52.384,2.57600212 51.519,3.44099212 51.519,4.50800212 C51.519,5.57501212 52.38399,6.44000212 53.451,6.44000212 C54.51801,6.44000212 55.383,5.57501212 55.383,4.50800212 C55.383,3.44099212 54.51801,2.57600212 53.451,2.57600212 Z M81.787,2.12000002e-06 C80.72,2.12000002e-06 79.855,0.86499212 79.855,1.93200212 C79.855,2.99900212 80.71999,3.86400212 81.787,3.86400212 C82.85401,3.86400212 83.719,2.99901212 83.719,1.93200212 C83.719,1.41960212 83.51545,0.92820212 83.15313,0.56590212 C82.79081,0.20360212 82.2994,2.12000002e-06 81.78703,2.12000002e-06 L81.787,2.12000002e-06 Z" id="Shape" fill="url(#linearGradient-26)"></path>
                                <path d="M50.232,173.88 C56.2427,159.283 59.248,148.98 59.248,142.969 C59.248,137.0943 56.3777,133.2703 50.637,131.497 L50.232,131.377 L50.232,123.649 L34.776,123.649 L34.776,131.377 C28.7653,133.0917 25.76,136.9557 25.76,142.969 C25.76,148.9823 28.7653,159.286 34.776,173.88 C35.63467,174.73933 38.2107,175.1687 42.504,175.168001 C46.7973,175.167332 49.3733,174.738 50.232,173.88 Z" id="Path" fill="url(#linearGradient-27)"></path>
                                <path d="M56.672,142.96 C56.672,137.808 54.096,132.66 42.504,132.66 C30.912,132.66 28.336,137.812 28.336,142.96 C28.336,148.108 29.624,153.26 34.776,167.432 C36.064,170.008 43.792,171.296 47.656,168.72 C51.52,166.144 56.672,148.116 56.672,142.96 L56.672,142.96 Z" id="Path" fill="url(#linearGradient-28)"></path>
                            </g>
                            <g transform="translate(146.830000, 161.000000)">
                                <path d="M24.472,33.487 C32.3256,33.35405 39.693,29.6576 44.494,23.441 C48.375,18.103 48.943,11.015 48.943,7.814 C48.943,1.032 38.908,1.77635684e-15 24.472,1.77635684e-15 C10.036,1.77635684e-15 -3.55271368e-15,1.032 -3.55271368e-15,7.814 C-3.55271368e-15,10.733 0.068,17.391 3.337,22.325 C7.663,28.854 16.249,33.487 24.472,33.487 Z" id="Path" fill="url(#linearGradient-29)"></path>
                                <path d="M44.7319639,9.39319104 C44.9087239,7.98159104 46.1963639,6.98049104 47.6079639,7.15719104 C54.9779639,8.08119104 58.4269639,12.137191 56.3739639,18.337191 C54.4829639,24.037191 50.2379639,26.296191 41.8609639,26.302191 C40.4382639,26.302191 39.2849639,25.148891 39.2849639,23.726191 C39.2849639,22.303491 40.4382639,21.150191 41.8609639,21.150191 C48.2529639,21.150191 51.1149639,20.115191 51.4869639,16.712191 C51.7319639,14.474191 51.4159639,12.826191 46.9709639,12.270191 C46.2923339,12.186047 45.6749639,11.835521 45.2550639,11.295861 C44.8351639,10.756201 44.6469039,10.071661 44.7320039,9.39316104 L44.7319639,9.39319104 Z" id="Path" fill="url(#linearGradient-30)" transform="translate(48.122085, 16.719582) rotate(-5.000000) translate(-48.122085, -16.719582) "></path>
                                <path d="M3.864,10.304 C2.576,11.592 3.864,29.624 19.32,29.624 C34.776,29.624 37.351,18.032 37.351,14.168 C37.351,10.304 28.335,14.168 19.319,12.88 C10.303,11.592 5.152,9.016 3.864,10.304 Z" id="Path" fill="url(#linearGradient-31)"></path>
                                <g transform="translate(1.048000, 0.000000)">
                                    <ellipse id="Oval" fill="url(#radialGradient-32)" cx="23.818" cy="4.87" rx="22.56" ry="3.673"></ellipse>
                                    <path d="M28.575,-6.66133815e-16 C30.2923,1.7173 28.575,2.576 23.423,2.576 C15.7,2.576 7.968,3.864 15.7,6.44 C23.432,9.016 19.564,9.016 15.7,9.016 L2.816,9.016 L0.24,6.44 C-0.08479,5.61205 -0.08479,4.692 0.24,3.864 C0.92247,2.8456 1.7976,1.9705 2.816,1.288 L14.408,-6.66133815e-16 L28.575,-6.66133815e-16 Z" id="Path" fill="url(#linearGradient-33)"></path>
                                    <path d="M24.735,6.44 C28.13,6.44 28.576,6.056 28.576,5.581 C28.576,5.106 27.873,3.864 24.478,3.864 C21.083,3.864 19.56,5.107 19.56,5.581 C19.56,6.055 21.34,6.44 24.735,6.44 L24.735,6.44 Z" id="Path" fill="url(#linearGradient-34)"></path>
                                    <path d="M29.337,7.728 C33.217,7.728 33.727,7.151 33.727,6.44 C33.727,5.729 32.923,3.864 29.043,3.864 C25.163,3.864 23.423,5.729 23.423,6.44 C23.423,7.151 25.457,7.728 29.337,7.728 L29.337,7.728 Z" id="Path" fill="url(#linearGradient-35)"></path>
                                </g>
                            </g>
                        </g>
                    </g>
                </g>
            </g>
        </g>
    </g>
</svg>