<?xml version="1.0" encoding="UTF-8"?>
<svg width="356px" height="198px" viewBox="0 0 356 198" version="1.1" xmlns="http://www.w3.org/2000/svg" xmlns:xlink="http://www.w3.org/1999/xlink">
    <!-- Generator: Sketch 63.1 (92452) - https://sketch.com -->
    <title>Group</title>
    <desc>Created with Sketch.</desc>
    <defs>
        <linearGradient x1="50%" y1="0%" x2="50%" y2="100%" id="linearGradient-1">
            <stop stop-color="#EC8E8D" offset="0%"></stop>
            <stop stop-color="#DB7B7B" offset="100%"></stop>
        </linearGradient>
        <linearGradient x1="102%" y1="11.6%" x2="42.8%" y2="60.8%" id="linearGradient-2">
            <stop stop-color="#EC8E8D" offset="0%"></stop>
            <stop stop-color="#DB7B7B" offset="100%"></stop>
        </linearGradient>
        <linearGradient x1="50%" y1="-20.8%" x2="50%" y2="70.3%" id="linearGradient-3">
            <stop stop-color="#EE9291" offset="0%"></stop>
            <stop stop-color="#F58686" stop-opacity="0" offset="100%"></stop>
        </linearGradient>
        <radialGradient cx="60.039%" cy="50%" fx="60.039%" fy="50%" r="84.1%" gradientTransform="translate(0.600390,0.500000),scale(0.162775,1.000000),rotate(90.000000),translate(-0.600390,-0.500000)" id="radialGradient-4">
            <stop stop-color="#916D5A" offset="0%"></stop>
            <stop stop-color="#392C27" offset="100%"></stop>
        </radialGradient>
        <linearGradient x1="74.1%" y1="50%" x2="19.7%" y2="50%" id="linearGradient-5">
            <stop stop-color="#FBE1D4" offset="0%"></stop>
            <stop stop-color="#F1B49B" offset="100%"></stop>
        </linearGradient>
        <linearGradient x1="50%" y1="0%" x2="50%" y2="100%" id="linearGradient-6">
            <stop stop-color="#FBE9E0" offset="0%"></stop>
            <stop stop-color="#EEBBA6" offset="100%"></stop>
        </linearGradient>
        <linearGradient x1="50%" y1="0%" x2="50%" y2="100%" id="linearGradient-7">
            <stop stop-color="#FBE9E0" offset="0%"></stop>
            <stop stop-color="#EEBBA6" offset="100%"></stop>
        </linearGradient>
        <linearGradient x1="50%" y1="0%" x2="50%" y2="100%" id="linearGradient-8">
            <stop stop-color="#FAEBE7" offset="0%"></stop>
            <stop stop-color="#F6DDD6" offset="100%"></stop>
        </linearGradient>
        <linearGradient x1="50%" y1="0%" x2="50%" y2="63.6%" id="linearGradient-9">
            <stop stop-color="#FBF0EC" offset="0%"></stop>
            <stop stop-color="#FBF0EC" stop-opacity="0" offset="100%"></stop>
        </linearGradient>
        <linearGradient x1="50%" y1="0%" x2="50%" y2="100%" id="linearGradient-10">
            <stop stop-color="#C8B2AB" offset="0%"></stop>
            <stop stop-color="#A48F8A" offset="100%"></stop>
        </linearGradient>
        <linearGradient x1="54.78%" y1="6.3082%" x2="47.944%" y2="60.007%" id="linearGradient-11">
            <stop stop-color="#A27875" offset="0%"></stop>
            <stop stop-color="#BA8F8C" offset="100%"></stop>
        </linearGradient>
        <linearGradient x1="60.386%" y1="4.9819%" x2="36.254%" y2="90.381%" id="linearGradient-12">
            <stop stop-color="#9F7D7B" offset="0%"></stop>
            <stop stop-color="#CF9C99" offset="100%"></stop>
        </linearGradient>
        <linearGradient x1="56.977%" y1="23.036%" x2="36.269%" y2="105.74%" id="linearGradient-13">
            <stop stop-color="#BE9491" stop-opacity="0" offset="0%"></stop>
            <stop stop-color="#CEAEAC" offset="100%"></stop>
        </linearGradient>
        <radialGradient cx="113.31%" cy="-2.1797%" fx="113.31%" fy="-2.1797%" r="105.484821%" gradientTransform="translate(1.133100,-0.021797),scale(0.796380,1.000000),rotate(138.904479),translate(-1.133100,0.021797)" id="radialGradient-14">
            <stop stop-color="#FDCCCC" offset="0.19003%"></stop>
            <stop stop-color="#E39A9A" offset="100%"></stop>
        </radialGradient>
        <radialGradient cx="113.31%" cy="-2.1797%" fx="113.31%" fy="-2.1797%" r="105.369963%" gradientTransform="translate(1.133100,-0.021797),scale(0.797910,1.000000),rotate(138.849982),translate(-1.133100,0.021797)" id="radialGradient-15">
            <stop stop-color="#FDCCCC" offset="0.19003%"></stop>
            <stop stop-color="#E39A9A" offset="100%"></stop>
        </radialGradient>
        <path d="M158.37,9.9248 C169.703,12.395 178.352,12.395 184.317,9.9248 C193.2644,6.2195 205.791,-0.2642 211.159,1.588 C216.5274,3.4406 222.791,8.9985 220.1064,17.335 C218.3169,22.8929 202.8084,63.96 173.5804,140.535 C167.6155,160.914 154.7914,172.339 135.1064,174.809 C105.5804,178.5143 48.3174,167.3985 0.8964,134.977 C0.00166,134.05068 6.2648,122.009 14.3174,122.009 C14.3174,122.009 23.2648,100.704 28.6334,94.22 C34.0018,87.7358 46.5284,90.5147 50.1074,92.3674 C52.4934,93.6025 62.9324,98.2341 81.4234,106.2624 C85.0023,107.4975 87.9848,105.0273 90.3708,98.8519 C92.7568,92.6765 101.1078,63.0339 115.4238,9.9259 C119.5992,0.6627 126.1608,-2.1161 135.1078,1.5891 C144.0552,5.2944 151.8098,8.0733 158.3708,9.9259 L158.37,9.9248 Z" id="path-16"></path>
        <path d="M158.37,9.9248 C169.703,12.395 178.352,12.395 184.317,9.9248 C193.2644,6.2195 205.791,-0.2642 211.159,1.588 C216.5274,3.4406 222.791,8.9985 220.1064,17.335 C218.3169,22.8929 202.8084,63.96 173.5804,140.535 C167.6155,160.914 154.7914,172.339 135.1064,174.809 C105.5804,178.5143 48.3174,167.3985 0.8964,134.977 C0.00166,134.05068 6.2648,122.009 14.3174,122.009 C14.3174,122.009 23.2648,100.704 28.6334,94.22 C34.0018,87.7358 46.5284,90.5147 50.1074,92.3674 C52.4934,93.6025 62.9324,98.2341 81.4234,106.2624 C85.0023,107.4975 87.9848,105.0273 90.3708,98.8519 C92.7568,92.6765 101.1078,63.0339 115.4238,9.9259 C119.5992,0.6627 126.1608,-2.1161 135.1078,1.5891 C144.0552,5.2944 151.8098,8.0733 158.3708,9.9259 L158.37,9.9248 Z" id="path-18"></path>
        <radialGradient cx="50%" cy="-50%" fx="50%" fy="-50%" r="98.862%" gradientTransform="translate(0.500000,-0.500000),scale(0.786844,1.000000),rotate(90.000000),translate(-0.500000,0.500000)" id="radialGradient-20">
            <stop stop-color="#93A6CD" offset="0%"></stop>
            <stop stop-color="#43516F" offset="100%"></stop>
        </radialGradient>
        <path d="M158.37,9.9248 C169.703,12.395 178.352,12.395 184.317,9.9248 C193.2644,6.2195 205.791,-0.2642 211.159,1.588 C216.5274,3.4406 222.791,8.9985 220.1064,17.335 C218.3169,22.8929 202.8084,63.96 173.5804,140.535 C167.6155,160.914 154.7914,172.339 135.1064,174.809 C105.5804,178.5143 48.3174,167.3985 0.8964,134.977 C0.00166,134.05068 6.2648,122.009 14.3174,122.009 C14.3174,122.009 23.2648,100.704 28.6334,94.22 C34.0018,87.7358 46.5284,90.5147 50.1074,92.3674 C52.4934,93.6025 62.9324,98.2341 81.4234,106.2624 C85.0023,107.4975 87.9848,105.0273 90.3708,98.8519 C92.7568,92.6765 101.1078,63.0339 115.4238,9.9259 C119.5992,0.6627 126.1608,-2.1161 135.1078,1.5891 C144.0552,5.2944 151.8098,8.0733 158.3708,9.9259 L158.37,9.9248 Z" id="path-21"></path>
        <linearGradient x1="29.85%" y1="35.607%" x2="84.527%" y2="57.273%" id="linearGradient-23">
            <stop stop-color="#F9A8A8" offset="0%"></stop>
            <stop stop-color="#D69393" offset="100%"></stop>
        </linearGradient>
        <path d="M158.37,9.9248 C169.703,12.395 178.352,12.395 184.317,9.9248 C193.2644,6.2195 205.791,-0.2642 211.159,1.588 C216.5274,3.4406 222.791,8.9985 220.1064,17.335 C218.3169,22.8929 202.8084,63.96 173.5804,140.535 C167.6155,160.914 154.7914,172.339 135.1064,174.809 C105.5804,178.5143 48.3174,167.3985 0.8964,134.977 C0.00166,134.05068 6.2648,122.009 14.3174,122.009 C14.3174,122.009 23.2648,100.704 28.6334,94.22 C34.0018,87.7358 46.5284,90.5147 50.1074,92.3674 C52.4934,93.6025 62.9324,98.2341 81.4234,106.2624 C85.0023,107.4975 87.9848,105.0273 90.3708,98.8519 C92.7568,92.6765 101.1078,63.0339 115.4238,9.9259 C119.5992,0.6627 126.1608,-2.1161 135.1078,1.5891 C144.0552,5.2944 151.8098,8.0733 158.3708,9.9259 L158.37,9.9248 Z" id="path-24"></path>
        <path d="M158.37,9.9248 C169.703,12.395 178.352,12.395 184.317,9.9248 C193.2644,6.2195 205.791,-0.2642 211.159,1.588 C216.5274,3.4406 222.791,8.9985 220.1064,17.335 C218.3169,22.8929 202.8084,63.96 173.5804,140.535 C167.6155,160.914 154.7914,172.339 135.1064,174.809 C105.5804,178.5143 48.3174,167.3985 0.8964,134.977 C0.00166,134.05068 6.2648,122.009 14.3174,122.009 C14.3174,122.009 23.2648,100.704 28.6334,94.22 C34.0018,87.7358 46.5284,90.5147 50.1074,92.3674 C52.4934,93.6025 62.9324,98.2341 81.4234,106.2624 C85.0023,107.4975 87.9848,105.0273 90.3708,98.8519 C92.7568,92.6765 101.1078,63.0339 115.4238,9.9259 C119.5992,0.6627 126.1608,-2.1161 135.1078,1.5891 C144.0552,5.2944 151.8098,8.0733 158.3708,9.9259 L158.37,9.9248 Z" id="path-26"></path>
        <path d="M122.58,4.2346 C124.3695,0.5293 116.9133,-0.7058 100.212,0.5293 C75.159,2.3819 74.265,10.7183 59.054,8.8661 C43.843,7.0135 21.475,0.5293 13.422,1.4556 C8.0536,2.07314 3.5799,6.396 0.001,14.4236 C7.1589,17.5113 14.317,20.2903 21.475,22.7604 C32.212,26.4657 49.212,30.1709 68.896,27.392 C82.019,25.5394 99.914,17.8201 122.58,4.234 L122.58,4.2346 Z" id="path-28"></path>
        <linearGradient x1="83.434%" y1="41.003%" x2="50%" y2="55.294%" id="linearGradient-30">
            <stop stop-color="#D58888" offset="0%"></stop>
            <stop stop-color="#FDC5C5" offset="100%"></stop>
        </linearGradient>
        <linearGradient x1="50%" y1="0%" x2="50.953%" y2="53.689%" id="linearGradient-31">
            <stop stop-color="#B48784" offset="0%"></stop>
            <stop stop-color="#D7ABA8" offset="100%"></stop>
        </linearGradient>
        <linearGradient x1="43.476%" y1="4.1397%" x2="53.112%" y2="66.939%" id="linearGradient-32">
            <stop stop-color="#AE827F" offset="0%"></stop>
            <stop stop-color="#C39996" offset="100%"></stop>
        </linearGradient>
        <linearGradient x1="49.526%" y1="5.2843%" x2="51.336%" y2="107.89%" id="linearGradient-33">
            <stop stop-color="#F1DEDC" stop-opacity="0" offset="0%"></stop>
            <stop stop-color="#DFB9B7" offset="100%"></stop>
        </linearGradient>
        <path d="M28.831,24.822 C25.326,28.2605 19.7135,28.2605 16.209,24.822 L15.72294,24.34094 L15.23788,24.819 C11.73238,28.2571 6.11988,28.2571 2.61488,24.819 C0.94268,23.1789 0.00048,20.9351 0.00048,18.5928 C0.00048,16.2505 0.94269,14.0067 2.61488,12.3666 L14.75188,0.4006 C15.29074,-0.12865 16.15428,-0.12865 16.69308,0.4006 L28.83108,12.3696 C30.50408,14.0093 31.44678,16.2533 31.44678,18.5958 C31.44678,20.9383 30.50405,23.1823 28.83108,24.822 L28.831,24.822 Z" id="path-34"></path>
    </defs>
    <g id="Page-1" stroke="none" stroke-width="1" fill="none" fill-rule="evenodd">
        <g id="marketplace-heroimage" transform="translate(-1227.000000, -37.000000)">
            <g id="Clipped" transform="translate(1216.000000, 0.000000)">
                <g id="Group" transform="translate(11.000000, 37.000000)">
                    <g>
                        <ellipse id="Oval" fill="#EBE8F2" fill-rule="nonzero" cx="65" cy="100" rx="65" ry="8"></ellipse>
                        <g opacity="0.5" transform="translate(1.900000, 23.000000)" fill-rule="nonzero">
                            <g transform="translate(0.066000, 25.784000)">
                                <g transform="translate(0.000000, 1.585000)">
                                    <polygon id="Path" fill="#DCB8B6" points="56.314 27.996 49.689 54.496 47.039 54.496 48.364 27.333"></polygon>
                                    <polygon id="Path" fill="#DCB8B6" points="23.188 20.708 16.563 47.208 13.913 47.208 15.238 20.045"></polygon>
                                    <polygon id="Path" fill="#DCB8B6" points="104.02 22.696 110.64 49.196 113.29 49.196 111.97 22.033"></polygon>
                                    <ellipse id="Oval" fill="#DDC4C3" cx="59.981" cy="16.732" rx="59.912" ry="12.414"></ellipse>
                                    <polygon id="Path" fill="#DDC4C3" points="119.92 11.432 119.92 17.643 108.65 21.37 110.64 12.67"></polygon>
                                    <polygon id="Path" fill="#DDC4C3" points="0 11.432 0 17.643 11.263 21.37 9.275 12.67"></polygon>
                                    <ellipse id="Oval" fill="#E9D2D1" cx="59.981" cy="11.605" rx="59.912" ry="11.605"></ellipse>
                                </g>
                                <g transform="translate(75.528000, 0.429000)">
                                    <path d="M12.588,17.226 C16.6281,17.15741 20.418,15.2559 22.888,12.058 C24.429,9.6636 25.2256,6.866 25.177,4.019 C25.176,0.531 20.014,0 12.588,0 C5.162,0 0,0.531 0,4.019 C0,5.519 0.035,8.945 1.717,11.483 C4.2225,15.0156 8.2577,17.1474 12.588,17.226 Z" id="Path" fill="url(#linearGradient-1)"></path>
                                    <path d="M23.006001,4.83102567 C23.049665,4.48183567 23.230441,4.16436567 23.508461,3.94862567 C23.786481,3.73288567 24.138901,3.63660567 24.488001,3.68102567 C28.279001,4.15602567 30.054001,6.24302567 28.997001,9.43002567 C28.024001,12.3650257 25.841001,13.5300257 21.532001,13.5300257 C20.800221,13.5300257 20.207001,12.9368057 20.207001,12.2050257 C20.207001,11.4732457 20.800221,10.8800257 21.532001,10.8800257 C24.820001,10.8800257 26.292001,10.3480257 26.484001,8.59702567 C26.610001,7.44602567 26.447001,6.59702567 24.161001,6.31202567 C23.811101,6.26956867 23.492541,6.08944567 23.275781,5.81151567 C23.059021,5.53358567 22.961941,5.18073567 23.006001,4.83102567 Z" id="Path" fill="url(#linearGradient-2)" transform="translate(24.752707, 8.600224) rotate(-5.000000) translate(-24.752707, -8.600224) "></path>
                                    <path d="M1.987,5.301 C1.324,5.964 1.987,15.239 9.937,15.239 C17.887,15.239 19.212,9.276 19.212,7.289 C19.212,5.302 14.574,7.289 9.937,6.626 C5.3,5.963 2.65,4.638 1.987,5.301 Z" id="Path" fill="url(#linearGradient-3)"></path>
                                    <g transform="translate(0.539000, 0.000000)">
                                        <ellipse id="Oval" fill="url(#radialGradient-4)" cx="12.252" cy="2.505" rx="11.605" ry="1.889"></ellipse>
                                        <path d="M14.7,-2.22044605e-16 C15.58333,0.88333 14.7,1.325 12.05,1.325 C8.075,1.325 4.1,1.988 8.075,3.313 C12.05,4.638 10.063,4.638 8.075,4.638 L1.448,4.638 L0.123,3.313 C-0.04407,2.88713 -0.04407,2.41387 0.123,1.988 C0.47406,1.46417 0.92417,1.01406 1.448,0.663 L7.411,-2.22044605e-16 L14.7,-2.22044605e-16 Z" id="Path" fill="url(#linearGradient-5)"></path>
                                        <path d="M12.723,3.313 C14.469,3.313 14.699,3.113 14.699,2.871 C14.699,2.629 14.337,1.988 12.591,1.988 C10.845,1.988 10.061,2.627 10.061,2.871 C10.061,3.115 10.977,3.313 12.723,3.313 L12.723,3.313 Z" id="Path" fill="url(#linearGradient-6)"></path>
                                        <path d="M15.091,3.976 C17.091,3.976 17.349,3.676 17.349,3.313 C17.349,2.95 16.936,1.988 14.94,1.988 C12.944,1.988 12.049,2.947 12.049,3.313 C12.049,3.679 13.095,3.976 15.091,3.976 L15.091,3.976 Z" id="Path" fill="url(#linearGradient-7)"></path>
                                    </g>
                                </g>
                            </g>
                            <g transform="translate(25.742000, 0.739000)">
                                <path d="M10.732,3.803 C10.98551,4.17585 11.05225,4.64501 10.91279,5.0738 C10.77333,5.50256 10.44335,5.84267 10.019,5.99503 C5.5248,7.80473 2.108,11.57423 0.747,16.22403 C-1.393,23.53103 1.46,33.03003 4.313,35.22403 C5.601,36.21403 9.863,37.79603 16.385,37.89203 C19.9937,37.7627 23.5874,37.3592 27.135,36.68503 C29.9877,36.68503 32.1273,34.98003 33.554,31.57003 C34.642,28.97003 36.354,23.15603 35.694,18.41803 C35.12986,15.14813 33.6456,12.10673 31.415,9.65003 C29.7578,8.08683 27.8224,6.84773 25.709,5.99703 C24.792,5.84803 23.865,5.56003 24.578,4.09703 C25.05267,3.12236 20.4373,3.02433 10.732,3.80303 L10.732,3.803 Z" id="Path" fill="url(#linearGradient-8)"></path>
                                <ellipse id="Oval" fill="url(#linearGradient-9)" cx="17.921" cy="20.481" rx="15.873" ry="13.313"></ellipse>
                                <ellipse id="Oval" fill="#F3E2DD" cx="17.921" cy="3.072" rx="9.729" ry="2.048"></ellipse>
                                <rect id="Rectangle" fill="#F3E2DD" x="8.192" y="2.048" width="1.024" height="1.024"></rect>
                                <rect id="Rectangle" fill="#F3E2DD" x="26.625" y="2.048" width="1.024" height="1.024"></rect>
                                <ellipse id="Oval" fill="#FFEEE8" cx="17.921" cy="2.048" rx="9.729" ry="2.048"></ellipse>
                                <ellipse id="Oval" fill="url(#linearGradient-10)" cx="17.921" cy="2.048" rx="7.68" ry="1.024"></ellipse>
                            </g>
                        </g>
                        <g opacity="0.84373" transform="translate(159.000000, 0.000000)">
                            <g transform="translate(17.000000, 155.000000)" fill-rule="nonzero" id="Path">
                                <path d="M65.084,14.182 L55.2768,53.688 C55.87118,55.6577 57.6543,56.1642 60.6262,55.2075 C60.6262,55.2075 65.084,41.5325 73.9992,14.1815 L66.8667,11.1425 L65.0836,14.1815 L65.084,14.182 Z" fill="url(#linearGradient-11)"></path>
                                <path d="M23.181,-0.0001 C7.727,42.039 0,63.359 0,63.96 C0,64.86084 2.6747,65.7617 3.5663,63.96 C4.16068,62.7589 15.4543,43.241 37.4463,5.405 L23.1813,-0.0001 L23.181,-0.0001 Z" fill="url(#linearGradient-12)"></path>
                                <polygon fill="url(#linearGradient-13)" points="22.289 7.4286 28.53 11.143 1.7831 62.214"></polygon>
                            </g>
                            <g id="f-link" fill="url(#radialGradient-15)" fill-rule="nonzero">
                                <path d="M158.37,9.9248 C169.703,12.395 178.352,12.395 184.317,9.9248 C193.2644,6.2195 205.791,-0.2642 211.159,1.588 C216.5274,3.4406 222.791,8.9985 220.1064,17.335 C218.3169,22.8929 202.8084,63.96 173.5804,140.535 C167.6155,160.914 154.7914,172.339 135.1064,174.809 C105.5804,178.5143 48.3174,167.3985 0.8964,134.977 C0.00166,134.05068 6.2648,122.009 14.3174,122.009 C14.3174,122.009 23.2648,100.704 28.6334,94.22 C34.0018,87.7358 46.5284,90.5147 50.1074,92.3674 C52.4934,93.6025 62.9324,98.2341 81.4234,106.2624 C85.0023,107.4975 87.9848,105.0273 90.3708,98.8519 C92.7568,92.6765 101.1078,63.0339 115.4238,9.9259 C119.5992,0.6627 126.1608,-2.1161 135.1078,1.5891 C144.0552,5.2944 151.8098,8.0733 158.3708,9.9259 L158.37,9.9248 Z" id="f"></path>
                            </g>
                            <g id="Clipped">
                                <mask id="mask-17" fill="white">
                                    <use xlink:href="#path-16"></use>
                                </mask>
                                <g id="f"></g>
                                <path d="M112.74,120.16 L129.74,90.518 C136.3014,88.0478 141.968,88.6654 146.74,92.3706 C151.512,96.0758 151.5119,97.311 146.74,96.0759 L138.6874,110.8969 L129.74,130.3499 L120.7926,125.7183 L112.74,120.1604 L112.74,120.16 Z" id="Path" fill="#D58888" fill-rule="nonzero" mask="url(#mask-17)"></path>
                            </g>
                            <g id="Clipped">
                                <mask id="mask-19" fill="white">
                                    <use xlink:href="#path-18"></use>
                                </mask>
                                <g id="f"></g>
                                <path d="M221,8.0722 L179.842,95.1462 C176.2631,105.0269 170.2981,107.4972 161.947,102.5567 C153.5961,97.6163 148.526,94.2199 146.736,92.3677 C143.7535,90.5151 140.4728,92.3677 136.8939,97.9256 C133.315,103.4835 127.9465,112.1296 120.7889,123.8626 L74.2629,145.1676 L26.8419,141.4623 L0.8949,134.9781 L16.9999,152.5781 L52.7889,168.3251 L84.9999,178.5141 L127.9469,184.072 L169.9999,172.03 L186.1049,132.198 L224.5789,15.478 L221,8.0675 L221,8.0722 Z" id="Path" fill="url(#radialGradient-20)" fill-rule="nonzero" mask="url(#mask-19)"></path>
                            </g>
                            <g id="Clipped">
                                <mask id="mask-22" fill="white">
                                    <use xlink:href="#path-21"></use>
                                </mask>
                                <g id="f"></g>
                                <path d="M84.105,106.26 L91.2629,106.26 C93.6489,111.2004 93.6489,117.067 91.2629,123.86 C88.8769,130.653 78.4379,134.049 59.9469,134.049 L25.9469,128.4911 L13.4209,123.8595 L8.9472,120.1542 L25.9472,90.5122 L45.6312,84.9543 L72.4732,97.9223 L80.5258,102.5539 L84.1047,106.2592 L84.105,106.26 Z" id="Path" fill="url(#linearGradient-23)" fill-rule="nonzero" mask="url(#mask-22)"></path>
                            </g>
                            <g id="Clipped">
                                <mask id="mask-25" fill="white">
                                    <use xlink:href="#path-24"></use>
                                </mask>
                                <g id="f"></g>
                                <path d="M14.316,122.01 L18.7897,123.8626 C21.7722,112.7466 25.6493,104.1016 30.4217,97.9256 C35.1936,91.7502 41.1587,89.5888 48.3167,91.4414 L45.6325,87.7361 L30.4215,88.66242 L24.1583,96.07292 L14.3162,114.59892 L12.5267,120.15682 L14.3162,122.00942 L14.316,122.01 Z" id="Path" fill="#D58888" fill-rule="nonzero" mask="url(#mask-25)"></path>
                            </g>
                            <g id="Clipped">
                                <mask id="mask-27" fill="white">
                                    <use xlink:href="#path-26"></use>
                                </mask>
                                <g id="f"></g>
                                <g id="Group" mask="url(#mask-27)">
                                    <g transform="translate(-1.789500, 119.630000)">
                                        <g id="e-link">
                                            <path d="M122.58,4.2346 C124.3695,0.5293 116.9133,-0.7058 100.212,0.5293 C75.159,2.3819 74.265,10.7183 59.054,8.8661 C43.843,7.0135 21.475,0.5293 13.422,1.4556 C8.0536,2.07314 3.5799,6.396 0.001,14.4236 C7.1589,17.5113 14.317,20.2903 21.475,22.7604 C32.212,26.4657 49.212,30.1709 68.896,27.392 C82.019,25.5394 99.914,17.8201 122.58,4.234 L122.58,4.2346 Z" id="e" fill="#FDC5C5" fill-rule="nonzero"></path>
                                        </g>
                                        <g id="Clipped">
                                            <mask id="mask-29" fill="white">
                                                <use xlink:href="#path-28"></use>
                                            </mask>
                                            <g id="e"></g>
                                            <path d="M114.53,-1.3233 C94.249,4.8521 80.232,16.2767 72.477,32.9507 C64.7226,49.6247 43.249,47.1547 8.056,25.5402 C24.161,13.1892 37.284,6.0872 47.424,4.2352 C57.564,2.3826 79.933,0.5299 114.53,-1.3227 L114.53,-1.3233 Z" id="Path" fill="url(#linearGradient-30)" fill-rule="nonzero" opacity="0.37444" mask="url(#mask-29)"></path>
                                        </g>
                                    </g>
                                </g>
                            </g>
                            <g transform="translate(92.000000, 160.000000)" fill-rule="nonzero" id="Path">
                                <path d="M0.89474,1.9361 C0.29825,3.1719 4.47364,27.2691 13.42074,74.2291 C15.80674,75.4649 17.59614,75.4649 18.78914,74.2291 C18.78914,70.5218 16.95844,20.4201 16.10494,12.1311 C15.2102,6.5701 14.24734,6.4699 11.63124,4.7165 C9.01524,2.9631 1.78914,0.0824 0.89424,1.936 L0.89474,1.9361 Z" fill="url(#linearGradient-31)"></path>
                                <path d="M79.632,57.546 C82.018,57.97369 83.8074,57.70487 85.0004,56.73954 C85.0004,56.73954 79.3337,38.88054 68.0004,3.16354 C67.40391,1.09764 65.9127,0.37964 63.5267,1.00954 C61.1407,1.63946 59.9478,3.08144 59.9478,5.33554 L79.6318,57.54654 L79.632,57.546 Z" fill="url(#linearGradient-32)"></path>
                                <path d="M8.9474,20.473 C13.1228,46.424 15.807,63.416 17,71.449 C18.193,79.482 17.5964978,62.4897 15.2105,20.473 L8.9473,20.473 L8.9474,20.473 Z" fill="url(#linearGradient-33)"></path>
                            </g>
                        </g>
                        <g transform="translate(148.000000, 8.216000)">
                            <g transform="translate(19.543414, 18.972450) rotate(-164.990000) translate(-19.543414, -18.972450) translate(3.543414, 4.972450)" id="Clipped">
                                <g>
                                    <mask id="mask-35" fill="white">
                                        <use xlink:href="#path-34"></use>
                                    </mask>
                                    <g id="t"></g>
                                    <g id="Group" mask="url(#mask-35)">
                                        <g transform="translate(0.000000, -3.000400)">
                                            <g transform="translate(0.000000, 0.859100)">
                                                <g fill="#F6E4E4" fill-rule="nonzero" id="Rectangle">
                                                    <rect x="0" y="0" width="31.447" height="31.513"></rect>
                                                </g>
                                            </g>
                                        </g>
                                    </g>
                                </g>
                            </g>
                            <g stroke-linecap="round" stroke-linejoin="round" transform="translate(26.291414, 17.580450) rotate(-164.990000) translate(-26.291414, -17.580450) translate(10.791414, 4.080450)" id="Path" stroke="#F58A8A" stroke-width="1.5002">
                                <path d="M28.188,24.285 C26.6807,25.7929 24.6359,26.6402 22.5038,26.6402 C20.3717,26.6402 18.3269,25.79299 16.8196,24.285 L15.2704,22.7358 L13.7212,24.285 C11.6904,26.3156 8.7306,27.1085 5.9567,26.3651 C3.1828,25.6217 1.0162,23.4549 0.273,20.6809 C-0.47015,17.9069 0.323042,14.9472 2.3538,12.9166 L3.9,11.3684 L15.27,0.0004 L28.188,12.9184 C29.6962,14.4256 30.5436,16.4704 30.5436,18.6026 C30.5436,20.7348 29.69622,22.7796 28.188,24.2868 L28.188,24.2857998 L28.188,24.285 Z"></path>
                            </g>
                        </g>
                    </g>
                </g>
            </g>
        </g>
    </g>
</svg>