<?xml version="1.0" encoding="UTF-8"?>
<svg width="40px" height="40px" viewBox="0 0 40 40" version="1.1" xmlns="http://www.w3.org/2000/svg" xmlns:xlink="http://www.w3.org/1999/xlink">
    <g id="Page-1" stroke="none" stroke-width="1" fill="none" fill-rule="evenodd">
        <g id="icon_visual-search">
            <path d="M20,0 C31.045695,0 40,8.954305 40,20 C40,31.045695 31.045695,40 20,40 C8.954305,40 0,31.045695 0,20 C0,8.954305 8.954305,0 20,0 Z" id="path-1" fill="#F58A8A"></path>
            <path d="M22.5,13 C22.7471428,13 22.9685714,13.1028571 23.1223032,13.2682682 L23.1933333,13.356 L24.6125,15.4 L27.5,15.4 C28.19,15.4 28.8158333,15.6704 29.2675,16.1032 C29.674,16.49272 29.942125,17.018968 29.991685,17.603212 L30,17.8 L30,26.6 C30,27.2624 29.7183333,27.8632 29.2675,28.2968 C28.86175,28.68704 28.313575,28.94444 27.7049875,28.9920176 L27.5,29 L12.5,29 C11.81,29 11.1841667,28.7296 10.7325,28.2968 C10.326,27.90728 10.057875,27.381032 10.008315,26.796788 L10,26.6 L10,17.8 C10,17.1376 10.2816667,16.5368 10.7325,16.1032 C11.13825,15.71296 11.686425,15.45556 12.2950125,15.4079824 L12.5,15.4 L15.3875,15.4 L16.8066667,13.356 C16.9438095,13.1592 17.1556463,13.0393959 17.3844509,13.0081749 L17.5,13 L22.5,13 Z M20.2328288,17.8 C19.018568,17.8 17.9169344,18.2970548 17.1215056,19.0971269 C16.3260768,19.897199 15.8333333,21.0073766 15.8333333,22.2300781 C15.8333333,23.4527797 16.3269567,24.5620712 17.1215056,25.3630294 C17.9160545,26.1639875 19.018568,26.6601562 20.2328288,26.6601562 C21.4470895,26.6601562 22.5487232,26.1631015 23.344152,25.3630294 C24.1395807,24.5629573 24.6323242,23.4527797 24.6323242,22.2300781 C24.6323242,21.0073766 24.1387008,19.898085 23.344152,19.0971269 C22.5496031,18.2961687 21.4470895,17.8 20.2328288,17.8 Z M20.2328288,19.5720313 C20.9622651,19.5720313 21.6204296,19.8688465 22.0990947,20.350839 C22.5777598,20.8328315 22.872526,21.4955712 22.872526,22.2300781 C22.872526,22.9645851 22.5777598,23.6273248 22.0990947,24.1093173 C21.6204296,24.5913098 20.9622651,24.888125 20.2328288,24.888125 C19.5033924,24.888125 18.8452279,24.5913098 18.3665628,24.1093173 C17.8878977,23.6273248 17.5931315,22.9645851 17.5931315,22.2300781 C17.5931315,21.4955712 17.8878977,20.8328315 18.3665628,20.350839 C18.8452279,19.8688465 19.5033924,19.5720313 20.2328288,19.5720313 Z M30.6253177,9.02366259 C30.7152081,9.05871612 30.7863082,9.12981616 30.8213617,9.21970656 L31.3159471,10.488009 C31.3510006,10.5778994 31.4221006,10.6489994 31.511991,10.6840529 L32.7802934,11.1786383 C32.9577766,11.2478494 33.0455485,11.4478346 32.9763374,11.6253177 C32.9412839,11.7152081 32.8701838,11.7863082 32.7802934,11.8213617 L31.511991,12.3159471 C31.4221006,12.3510006 31.3510006,12.4221006 31.3159471,12.511991 L30.8213617,13.7802934 C30.7521506,13.9577766 30.5521654,14.0455485 30.3746823,13.9763374 C30.2847919,13.9412839 30.2136918,13.8701838 30.1786383,13.7802934 L29.6840529,12.511991 C29.6489994,12.4221006 29.5778994,12.3510006 29.488009,12.3159471 L28.2197066,11.8213617 C28.0422234,11.7521506 27.9544515,11.5521654 28.0236626,11.3746823 C28.0587161,11.2847919 28.1298162,11.2136918 28.2197066,11.1786383 L29.488009,10.6840529 C29.5778994,10.6489994 29.6489994,10.5778994 29.6840529,10.488009 L30.1786383,9.21970656 C30.2478494,9.04222339 30.4478346,8.95445151 30.6253177,9.02366259 Z M23.2005084,2.03786015 C23.344333,2.09394579 23.4580931,2.20770586 23.5141787,2.35153049 L24.3055153,4.38081434 C24.361601,4.52463897 24.475361,4.63839903 24.6191857,4.69448468 L26.6484695,5.48582126 C26.9324426,5.59655899 27.0728776,5.91653532 26.9621399,6.20050839 C26.9060542,6.34433302 26.7922941,6.45809309 26.6484695,6.51417874 L24.6191857,7.30551532 C24.475361,7.36160097 24.361601,7.47536103 24.3055153,7.61918566 L23.5141787,9.64846951 C23.403441,9.93244258 23.0834647,10.0728776 22.7994916,9.96213985 C22.655667,9.90605421 22.5419069,9.79229414 22.4858213,9.64846951 L21.6944847,7.61918566 C21.638399,7.47536103 21.524639,7.36160097 21.3808143,7.30551532 L19.3515305,6.51417874 C19.0675574,6.40344101 18.9271224,6.08346468 19.0378601,5.79949161 C19.0939458,5.65566698 19.2077059,5.54190691 19.3515305,5.48582126 L21.3808143,4.69448468 C21.524639,4.63839903 21.638399,4.52463897 21.6944847,4.38081434 L22.4858213,2.35153049 C22.596559,2.06755742 22.9165353,1.92712242 23.2005084,2.03786015 Z" id="Shape" fill="#FFFFFF" fill-rule="nonzero"></path>
        </g>
    </g>
</svg>